# xmcd
#
# Track frame offsets: 
#        212
#        12267
#        30055
#        51947
#        61480
#        72180
#        86270
#        101490
#        116957
#        134402
#        158822
#        176400
#        194897
#        213687
#        226025
#
# Disc length: 3217 seconds
#
# Revision: 1
# Processed by: cddbd v1.5.2PL0 Copyright (c) Steve Scherf et al.
# Submitted via: ExactAudioCopy v0.95b4
#
DISCID=cb0c8f0f
DTITLE=Various Artist - Blues Cocktail Party!
DYEAR=1991
DGENRE=Blues
TTITLE0=The Chicken Shack - Rod Piazza and The Mighty Flyers
TTITLE1=Danger Zone - Take A Little Bit - Robert Ward
TTITLE2=Ships Passing In The Night - Ronnie Earl and The Broadcasters
TTITLE3=Bombasticsnooks Eaglin W Sam Myers and Anson Funderburgh
TTITLE4=Look What You're Doing To Me - Anson Funderburgh and The Rockets
TTITLE4=Feat. Sam Myers
TTITLE5=Make A Little Love Tonight - Anson Funderburgh and The Rockets F
TTITLE5=eat. Sam Myers
TTITLE6=Swannee River Rock - Mark 'kaz' Kazanoff and Snooks Eaglin
TTITLE7=What Else Is There To Do? - James 'thunderbird' Davis
TTITLE8=I'm Ready - Jimmy Don Smith and The Coldcuts
TTITLE9=Jailbait - Jimmy Don Smith and The Coldcuts
TTITLE10=Sil Moves Upstairs - Sil Austin
TTITLE11=Reconsider Baby - Bobby Radcliff
TTITLE12=Why You Stay Out So Late? - Mike Morgan and The Crawl
TTITLE13=Honey, I Need Your Lovin' - Mike Morgan and The Crawl
TTITLE14=The Comfort Table - Robert Ward
EXTD=
EXTT0=
EXTT1=
EXTT2=
EXTT3=
EXTT4=
EXTT5=
EXTT6=
EXTT7=
EXTT8=
EXTT9=
EXTT10=
EXTT11=
EXTT12=
EXTT13=
EXTT14=
PLAYORDER=
